Coordinates
version=1
nRows=32
nColumns=22
inDegrees=yes

Units are S.I. units (second, meters, Newtons, ...)
If the header above contains a line with 'inDegrees', this indicates whether rotational values are in degrees (yes) or radians (no).

endheader
time	pelvis_tilt	pelvis_list	pelvis_rotation	pelvis_tx	pelvis_ty	pelvis_tz	hip_flexion_r	hip_adduction_r	hip_rotation_r	knee_angle_r	ankle_angle_r	subtalar_angle_r	hip_flexion_l	hip_adduction_l	hip_rotation_l	knee_angle_l	ankle_angle_l	subtalar_angle_l	lumbar_extension	lumbar_bending	lumbar_rotation
      0.01000000	     -1.18612632	     -2.68750762	     -6.95078935	     -1.25681739	      0.93515448	     -0.08236274	     -1.79279689	      1.00595338	      5.87880176	     -3.74031820	      3.26875786	      2.39155781	     -2.53888942	     -3.42018760	    -12.44530522	     -7.29567945	      8.82971127	      4.93855785	     -2.09577068	     -1.03127264	      1.06941277
      0.02000000	     -1.18269535	     -2.70493749	     -6.95658697	     -1.25679007	      0.93515309	     -0.08238682	     -1.80259012	      1.02206169	      5.89693986	     -3.73539422	      3.28662411	      2.39849487	     -2.53246322	     -3.43869175	    -12.42910909	     -7.32538481	      8.82571998	      4.94029679	     -2.10432735	     -1.01184336	      1.07129705
      0.03000000	     -1.17736270	     -2.71497655	     -6.96618425	     -1.25674148	      0.93515092	     -0.08240539	     -1.80917050	      1.03072670	      5.91399466	     -3.74127371	      3.28174391	      2.40980895	     -2.52479878	     -3.44975087	    -12.43295443	     -7.36510654	      8.84940630	      4.94402412	     -2.11017979	     -1.00476722	      1.08348325
      0.04000000	     -1.17633605	     -2.71768538	     -6.98094287	     -1.25666262	      0.93514421	     -0.08243257	     -1.81293643	      1.03066199	      5.91408721	     -3.74278362	      3.28103793	      2.41107501	     -2.52662137	     -3.44835393	    -12.42988875	     -7.37752050	      8.85101557	      4.94422643	     -2.10551115	     -1.00272556	      1.08321502
      0.05000000	     -1.17581581	     -2.73608162	     -7.00987270	     -1.25664451	      0.93512883	     -0.08243017	     -1.80921309	      1.04825760	      5.96087592	     -3.75317296	      3.27144554	      2.44206345	     -2.49022720	     -3.47364841	    -12.48945828	     -7.47037838	      8.91743969	      4.94309103	     -2.11464486	     -0.98640479	      1.11923647
      0.06000000	     -1.17280387	     -2.74068758	     -7.02589946	     -1.25659199	      0.93512316	     -0.08246041	     -1.80936183	      1.04987741	      5.97081713	     -3.76278293	      3.26904781	      2.44837761	     -2.47919773	     -3.47603925	    -12.47950429	     -7.51145855	      8.92077052	      4.94200426	     -2.11983172	     -0.98423452	      1.14338399
      0.07000000	     -1.16823588	     -2.74784256	     -7.04397561	     -1.25654614	      0.93511584	     -0.08247677	     -1.80795958	      1.05527610	      5.99057844	     -3.77972919	      3.26884605	      2.45873770	     -2.45998386	     -3.48396461	    -12.49237278	     -7.57356706	      8.94118885	      4.93828671	     -2.12753062	     -0.98118543	      1.16919187
      0.08000000	     -1.16743522	     -2.75980576	     -7.06539524	     -1.25648890	      0.93510071	     -0.08248336	     -1.80235777	      1.06590176	      6.01400984	     -3.79943955	      3.27352081	      2.47269846	     -2.43500228	     -3.49947482	    -12.52974979	     -7.64374888	      8.97948615	      4.92987255	     -2.12626309	     -0.97305593	      1.19929994
      0.09000000	     -1.16611979	     -2.76287128	     -7.08129717	     -1.25638723	      0.93508857	     -0.08249970	     -1.80638775	      1.06620389	      6.01396246	     -3.80339897	      3.27370659	      2.47351752	     -2.43801209	     -3.49824673	    -12.52689208	     -7.65829344	      8.98106120	      4.92912089	     -2.11812569	     -0.97134934	      1.19913670
      0.10000000	     -1.16964782	     -2.78244965	     -7.11476927	     -1.25636532	      0.93506245	     -0.08247609	     -1.78613951	      1.08777020	      6.04965053	     -3.83898833	      3.28994502	      2.48997738	     -2.39417595	     -3.52676278	    -12.59713232	     -7.76028376	      9.05106487	      4.90727489	     -2.11962424	     -0.95312501	      1.24402391
      0.11000000	     -1.16572288	     -2.78642694	     -7.13008911	     -1.25629734	      0.93505474	     -0.08247895	     -1.78713755	      1.09012293	      6.05650061	     -3.85057806	      3.29043321	      2.49199990	     -2.38651031	     -3.52984947	    -12.58390511	     -7.79850992	      9.05353277	      4.90331274	     -2.11943683	     -0.95327560	      1.26605951
      0.12000000	     -1.16699515	     -2.80000675	     -7.15304731	     -1.25622997	      0.93503267	     -0.08245199	     -1.77632354	      1.10551882	      6.07742541	     -3.87847958	      3.30465029	      2.50057577	     -2.36370697	     -3.54929858	    -12.62398876	     -7.86269203	      9.09936877	      4.88524655	     -2.11159117	     -0.94328194	      1.29218245
      0.13000000	     -1.16312199	     -2.80212768	     -7.16356520	     -1.25611452	      0.93502179	     -0.08244948	     -1.78348831	      1.10600648	      6.07801357	     -3.88496259	      3.30437814	      2.50087154	     -2.36917895	     -3.54911687	    -12.61830077	     -7.87737884	      9.09917821	      4.88474717	     -2.09905860	     -0.94385945	      1.29396204
      0.14000000	     -1.15188040	     -2.80827026	     -7.18049928	     -1.25606230	      0.93502208	     -0.08242846	     -1.78890317	      1.11140136	      6.08943714	     -3.90222235	      3.30942675	      2.50394685	     -2.36130111	     -3.55749694	    -12.60595321	     -7.93196842	      9.11078995	      4.88112737	     -2.10984700	     -0.94401783	      1.32620882
      0.15000000	     -1.14721499	     -2.81068261	     -7.18633032	     -1.25593075	      0.93501368	     -0.08241517	     -1.79794632	      1.11321191	      6.09152327	     -3.91091392	      3.30993752	      2.50455049	     -2.36870035	     -3.55930031	    -12.60494293	     -7.94518674	      9.11339039	      4.88058858	     -2.09404125	     -0.94571328	      1.32699116
      0.16000000	     -1.12955459	     -2.83430214	     -7.21422613	     -1.25585099	      0.93501250	     -0.08235788	     -1.81128981	      1.13760946	      6.12443558	     -3.93546827	      3.33625337	      2.51887599	     -2.36693775	     -3.59066475	    -12.66328154	     -8.01741896	      9.19265490	      4.87108688	     -2.10881180	     -0.92702153	      1.36275845
      0.17000000	     -1.12555560	     -2.83583300	     -7.22047986	     -1.25571926	      0.93500492	     -0.08234045	     -1.82035051	      1.13860834	      6.12572498	     -3.94243244	      3.33578767	      2.51925102	     -2.37454358	     -3.59154080	    -12.65989318	     -8.02870610	      9.19282090	      4.87093938	     -2.09350867	     -0.92855725	      1.36332254
      0.18000000	     -1.12059001	     -2.83777132	     -7.22644843	     -1.25558501	      0.93499851	     -0.08231574	     -1.83043771	      1.14018624	      6.12785270	     -3.95019390	      3.33640188	      2.51969423	     -2.38296739	     -3.59361014	    -12.65652417	     -8.04180268	      9.19433476	      4.87084704	     -2.07890117	     -0.93080606	      1.36494626
      0.19000000	     -1.09644085	     -2.85045806	     -7.23641156	     -1.25548379	      0.93501277	     -0.08228250	     -1.85766939	      1.15133031	      6.14866971	     -3.96488129	      3.36026583	      2.52318472	     -2.39858957	     -3.60834421	    -12.66177971	     -8.08525426	      9.23003708	      4.87074871	     -2.09836029	     -0.92508064	      1.39193449
      0.20000000	     -1.09273299	     -2.85227216	     -7.23738254	     -1.25533586	      0.93500612	     -0.08226044	     -1.86798020	      1.15266391	      6.15012966	     -3.97258889	      3.36097151	      2.52315288	     -2.40949815	     -3.61027579	    -12.66311346	     -8.09159015	      9.23196700	      4.87068365	     -2.08185153	     -0.92746543	      1.38960639
      0.21000000	     -1.06489273	     -2.86528001	     -7.24234133	     -1.25516571	      0.93502371	     -0.08223878	     -1.90613817	      1.16218561	      6.15503138	     -3.98356666	      3.39731028	      2.51838520	     -2.45729172	     -3.61944027	    -12.69621502	     -8.08383315	      9.27224478	      4.87055765	     -2.09501350	     -0.91608961	      1.37655286
      0.22000000	     -1.06114591	     -2.86685464	     -7.24071081	     -1.25502300	      0.93502044	     -0.08220819	     -1.91626940	      1.16446792	      6.15642269	     -3.99153023	      3.39777943	      2.51775488	     -2.46748892	     -3.62189455	    -12.69414308	     -8.09135491	      9.27204999	      4.87044884	     -2.08193532	     -0.92190154	      1.37773568
      0.23000000	     -1.00128229	     -2.87556137	     -7.23644078	     -1.25485505	      0.93508216	     -0.08218316	     -1.98809567	      1.16721121	      6.13672713	     -4.00350994	      3.45016955	      2.48847192	     -2.55370563	     -3.62089932	    -12.68957463	     -8.07280436	      9.28601591	      4.86816848	     -2.13679866	     -0.92630301	      1.37983048
      0.24000000	     -0.99949130	     -2.87645918	     -7.22796874	     -1.25471067	      0.93507486	     -0.08216530	     -1.99613270	      1.16850081	      6.13983233	     -4.01307539	      3.44935585	      2.48765173	     -2.56342684	     -3.62244270	    -12.69094177	     -8.07442165	      9.28582920	      4.86796256	     -2.12327006	     -0.93103378	      1.37719343
      0.25000000	     -0.99757661	     -2.87770038	     -7.21982598	     -1.25456753	      0.93506736	     -0.08213355	     -2.00351103	      1.17139236	      6.14176535	     -4.02381502	      3.45075456	      2.48642108	     -2.57543675	     -3.62495598	    -12.69299301	     -8.07281262	      9.28660192	      4.86765025	     -2.11071992	     -0.93817052	      1.37122600
      0.26000000	     -0.98565773	     -2.87887364	     -7.21080513	     -1.25441171	      0.93506798	     -0.08211387	     -2.01310798	      1.17312425	      6.12836981	     -4.05359639	      3.47811525	      2.47558705	     -2.61754316	     -3.62100656	    -12.69741876	     -8.03190941	      9.29416293	      4.86591945	     -2.11078412	     -0.94107712	      1.32711140
      0.27000000	     -0.95566758	     -2.87658248	     -7.18819719	     -1.25426019	      0.93509105	     -0.08209266	     -2.04350631	      1.17138027	      6.08252426	     -4.08173887	      3.53684230	      2.45186904	     -2.67376259	     -3.61249647	    -12.66406021	     -7.99722097	      9.29003869	      4.86186556	     -2.13383158	     -0.95915298	      1.31090891
      0.28000000	     -0.95558683	     -2.87720403	     -7.17786966	     -1.25413208	      0.93507768	     -0.08204725	     -2.04973713	      1.17522845	      6.08489872	     -4.08926598	      3.53654211	      2.45108541	     -2.68177907	     -3.61637762	    -12.66539573	     -7.99749187	      9.28979800	      4.86149282	     -2.12401594	     -0.96983765	      1.30874212
      0.29000000	     -0.95345881	     -2.87512972	     -7.16295736	     -1.25400200	      0.93506424	     -0.08200544	     -2.05352645	      1.17712149	      6.08033633	     -4.10603020	      3.54760173	      2.44586283	     -2.70334957	     -3.61469288	    -12.66654802	     -7.97156856	      9.29349650	      4.86000387	     -2.11792620	     -0.98309891	      1.27504029
      0.30000000	     -0.95397978	     -2.87561709	     -7.15291099	     -1.25387859	      0.93504733	     -0.08194699	     -2.05911001	      1.18211354	      6.08111592	     -4.11329462	      3.54956455	      2.44543252	     -2.71121443	     -3.61921325	    -12.66576801	     -7.97107142	      9.29379751	      4.85966006	     -2.10855033	     -0.99528450	      1.27347697
      0.31000000	     -0.95315937	     -2.87102072	     -7.13365652	     -1.25374359	      0.93502619	     -0.08190724	     -2.06180586	      1.18170260	      6.06489335	     -4.13180799	      3.58146897	      2.44124448	     -2.73449664	     -3.61376772	    -12.64399286	     -7.93786176	      9.30233663	      4.85823756	     -2.09982856	     -1.01058305	      1.23274410
      0.32000000	     -0.95489410	     -2.87114025	     -7.12214480	     -1.25363856	      0.93500468	     -0.08183233	     -2.06596986	      1.18812659	      6.06562879	     -4.13706381	      3.58360921	      2.44113352	     -2.73956590	     -3.61978524	    -12.64250242	     -7.93721218	      9.30259990	      4.85790355	     -2.09363466	     -1.02556022	      1.23255671
